PathFileType	4	(X/Y/Z)	C:\Users\86182\Documents\cortex\Trimmed_M4_L10.trc
DataRate	CameraRate	NumFrames	NumMarkers	Units	OrigDataRate	OrigDataStartFrame	OrigNumFrames
100.00	100.00	       140	2	mm	100.00	361	       901
Frame#	Time	gripper			box			
		X1	Y1	Z1	X2	Y2	Z2	

361	3.600	274.61191	150.41458	292.35568	277.00424	147.37421	157.01132	
362	3.610	274.58398	150.41600	292.41425	277.00388	147.39793	157.10196	
363	3.620	274.56421	150.41742	292.45496	277.00360	147.41443	157.16826	
364	3.630	274.55368	150.41931	292.48114	277.00311	147.42302	157.21280	
365	3.640	274.55081	150.42160	292.49615	277.00372	147.42461	157.23936	
366	3.650	274.55301	150.42403	292.50299	277.00687	147.42104	157.25214	
367	3.660	274.55780	150.42630	292.50458	277.01297	147.41440	157.25529	
368	3.670	274.56332	150.42821	292.50314	277.02151	147.40642	157.25262	
369	3.680	274.56836	150.42964	292.50046	277.03171	147.39827	157.24706	
370	3.690	274.57239	150.43062	292.49753	277.04272	147.39066	157.24060	
371	3.700	274.57529	150.43123	292.49500	277.05368	147.38406	157.23451	
372	3.710	274.57718	150.43158	292.49310	277.06354	147.37885	157.22945	
373	3.720	274.57837	150.43178	292.49185	277.07132	147.37524	157.22574	
374	3.730	274.57907	150.43190	292.49121	277.07639	147.37332	157.22345	
375	3.740	274.57944	150.43196	292.49097	277.07867	147.37283	157.22249	
376	3.750	274.57950	150.43196	292.49106	277.07886	147.37326	157.22249	
377	3.760	274.57916	150.43178	292.49127	277.07800	147.37396	157.22301	
378	3.770	274.57800	150.43123	292.49142	277.07687	147.37431	157.22362	
379	3.780	274.57532	150.42996	292.49136	277.07556	147.37395	157.22409	
380	3.790	274.57025	150.42758	292.49088	277.07358	147.37259	157.22432	
381	3.800	274.56204	150.42375	292.48978	277.07028	147.37003	157.22432	
382	3.810	274.55035	150.41835	292.48785	277.06506	147.36606	157.22415	
383	3.820	274.53561	150.41164	292.48505	277.05777	147.36070	157.22383	
384	3.830	274.51926	150.40430	292.48145	277.04861	147.35437	157.22343	
385	3.840	274.50327	150.39728	292.47733	277.03894	147.34799	157.22301	
386	3.850	274.48959	150.39142	292.47342	277.03143	147.34271	157.22244	
387	3.860	274.47983	150.38730	292.47058	277.02936	147.33926	157.22145	
388	3.870	274.47495	150.38515	292.46957	277.03497	147.33777	157.21974	
389	3.880	274.47498	150.38481	292.47064	277.04834	147.33772	157.21721	
390	3.890	274.47906	150.38577	292.47333	277.06732	147.33813	157.21394	
391	3.900	274.48572	150.38728	292.47665	277.08832	147.33794	157.21027	
392	3.910	274.49353	150.38861	292.47964	277.10818	147.33650	157.20653	
393	3.920	274.50150	150.38927	292.48154	277.12469	147.33397	157.20308	
394	3.930	274.50900	150.38901	292.48206	277.13657	147.33090	157.20030	
395	3.940	274.51547	150.38788	292.48120	277.14273	147.32767	157.19846	
396	3.950	274.52008	150.38615	292.47922	277.14282	147.32422	157.19762	
397	3.960	274.52200	150.38426	292.47662	277.13742	147.32051	157.19768	
398	3.970	274.52078	150.38268	292.47394	277.12823	147.31670	157.19839	
399	3.980	274.51685	150.38177	292.47189	277.11752	147.31332	157.19954	
400	3.990	274.51135	150.38188	292.47107	277.10751	147.31120	157.20090	
401	4.000	274.50574	150.38306	292.47180	277.09998	147.31114	157.20235	
402	4.010	274.50119	150.38499	292.47388	277.09579	147.31351	157.20378	
403	4.020	274.49805	150.38718	292.47656	277.09464	147.31795	157.20518	
404	4.030	274.49606	150.38913	292.47910	277.09509	147.32339	157.20654	
405	4.040	274.49460	150.39050	292.48090	277.09531	147.32835	157.20781	
406	4.050	274.49326	150.39120	292.48169	277.09393	147.33147	157.20891	
407	4.060	274.49182	150.39127	292.48154	277.09119	147.33203	157.20961	
408	4.070	274.49060	150.39091	292.48077	277.08850	147.33017	157.20964	
409	4.080	274.49017	150.39041	292.47998	277.08774	147.32684	157.20888	
410	4.090	274.49115	150.39005	292.47961	277.09009	147.32335	157.20744	
411	4.100	274.49377	150.38988	292.47983	277.09592	147.32089	157.20558	
412	4.110	274.49777	150.38985	292.48050	277.10452	147.32002	157.20360	
413	4.120	274.50244	150.38982	292.48129	277.11462	147.32065	157.20174	
414	4.130	274.50699	150.38968	292.48193	277.12454	147.32227	157.20021	
415	4.140	274.51059	150.38940	292.48215	277.13257	147.32420	157.19916	
416	4.150	274.51248	150.38892	292.48175	277.13718	147.32574	157.19868	
417	4.160	274.51215	150.38821	292.48065	277.13690	147.32617	157.19888	
418	4.170	274.50943	150.38730	292.47879	277.13092	147.32506	157.19980	
419	4.180	274.50467	150.38617	292.47626	277.11951	147.32256	157.20139	
420	4.190	274.49872	150.38496	292.47345	277.10446	147.31946	157.20349	
421	4.200	274.49271	150.38402	292.47095	277.08865	147.31679	157.20583	
422	4.210	274.48776	150.38368	292.46957	277.07495	147.31532	157.20802	
423	4.220	274.48459	150.38414	292.46967	277.06549	147.31529	157.20972	
424	4.230	274.48358	150.38528	292.47119	277.06143	147.31642	157.21065	
425	4.240	274.48468	150.38684	292.47369	277.06290	147.31807	157.21068	
426	4.250	274.48740	150.38846	292.47656	277.06903	147.31961	157.20987	
427	4.260	274.49103	150.38980	292.47919	277.07849	147.32076	157.20844	
428	4.270	274.49506	150.39058	292.48108	277.08987	147.32150	157.20660	
429	4.280	274.49930	150.39070	292.48203	277.10175	147.32188	157.20459	
430	4.290	274.50363	150.39017	292.48199	277.11270	147.32181	157.20262	
431	4.300	274.50787	150.38904	292.48111	277.12155	147.32117	157.20085	
432	4.310	274.51154	150.38756	292.47958	277.12759	147.31989	157.19943	
433	4.320	274.51410	150.38612	292.47794	277.13101	147.31807	157.19836	
434	4.330	274.51529	150.38522	292.47681	277.13272	147.31618	157.19760	
435	4.340	274.51535	150.38510	292.47662	277.13358	147.31468	157.19711	
436	4.350	274.51495	150.38570	292.47742	277.13388	147.31389	157.19691	
437	4.360	274.51425	150.38673	292.47882	277.13330	147.31384	157.19707	
438	4.370	274.51288	150.38799	292.48044	277.13089	147.31430	157.19768	
439	4.380	274.51038	150.38928	292.48193	277.12531	147.31491	157.19891	
440	4.390	274.50699	150.39041	292.48297	277.11581	147.31535	157.20085	
441	4.400	274.50327	150.39117	292.48343	277.10257	147.31558	157.20345	
442	4.410	274.49960	150.39149	292.48328	277.08685	147.31563	157.20648	
443	4.420	274.49637	150.39148	292.48267	277.07111	147.31564	157.20955	
444	4.430	274.49387	150.39127	292.48190	277.05853	147.31586	157.21208	
445	4.440	274.49228	150.39107	292.48132	277.05191	147.31650	157.21358	
446	4.450	274.49182	150.39101	292.48114	277.05255	147.31773	157.21378	
447	4.460	274.49252	150.39120	292.48154	277.06021	147.31960	157.21274	
448	4.470	274.49420	150.39163	292.48248	277.07364	147.32201	157.21069	
449	4.480	274.49643	150.39217	292.48367	277.09052	147.32463	157.20801	
450	4.490	274.49872	150.39264	292.48480	277.10779	147.32678	157.20514	
451	4.500	274.50082	150.39293	292.48560	277.12234	147.32773	157.20251	
452	4.510	274.50256	150.39302	292.48605	277.13226	147.32704	157.20042	
453	4.520	274.50391	150.39291	292.48615	277.13705	147.32487	157.19897	
454	4.530	274.50470	150.39268	292.48596	277.13754	147.32196	157.19818	
455	4.540	274.50482	150.39241	292.48553	277.13550	147.31927	157.19792	
456	4.550	274.50436	150.39214	292.48508	277.13248	147.31750	157.19807	
457	4.560	274.50354	150.39192	292.48462	277.12927	147.31680	157.19850	
458	4.570	274.50278	150.39178	292.48428	277.12604	147.31709	157.19914	
459	4.580	274.50226	150.39178	292.48416	277.12253	147.31818	157.20001	
460	4.590	274.50214	150.39186	292.48425	277.11844	147.31979	157.20116	
461	4.600	274.50214	150.39194	292.48438	277.11313	147.32166	157.20261	
462	4.610	274.50192	150.39192	292.48431	277.10605	147.32329	157.20435	
463	4.620	274.50104	150.39175	292.48389	277.09723	147.32434	157.20630	
464	4.630	274.49921	150.39143	292.48309	277.08746	147.32469	157.20824	
465	4.640	274.49661	150.39096	292.48190	277.07852	147.32428	157.20985	
466	4.650	274.49368	150.39038	292.48053	277.07251	147.32318	157.21075	
467	4.660	274.49106	150.38982	292.47922	277.07117	147.32173	157.21063	
468	4.670	274.48932	150.38942	292.47833	277.07495	147.32036	157.20953	
469	4.680	274.48901	150.38934	292.47815	277.08307	147.31947	157.20769	
470	4.690	274.49039	150.38965	292.47888	277.09393	147.31926	157.20551	
471	4.700	274.49307	150.39020	292.48016	277.10538	147.31953	157.20337	
472	4.710	274.49646	150.39072	292.48157	277.11548	147.31998	157.20155	
473	4.720	274.49976	150.39102	292.48260	277.12302	147.32028	157.20020	
474	4.730	274.50256	150.39099	292.48306	277.12753	147.32024	157.19933	
475	4.740	274.50458	150.39069	292.48297	277.12918	147.31984	157.19890	
476	4.750	274.50577	150.39021	292.48248	277.12863	147.31935	157.19887	
477	4.760	274.50610	150.38979	292.48190	277.12668	147.31918	157.19917	
478	4.770	274.50552	150.38963	292.48157	277.12384	147.31956	157.19980	
479	4.780	274.50400	150.38982	292.48157	277.12036	147.32045	157.20071	
480	4.790	274.50195	150.39023	292.48181	277.11621	147.32161	157.20184	
481	4.800	274.50003	150.39076	292.48224	277.11145	147.32280	157.20316	
482	4.810	274.49863	150.39131	292.48282	277.10654	147.32396	157.20450	
483	4.820	274.49786	150.39186	292.48349	277.10211	147.32495	157.20570	
484	4.830	274.49762	150.39233	292.48413	277.09875	147.32561	157.20659	
485	4.840	274.49756	150.39267	292.48462	277.09668	147.32584	157.20705	
486	4.850	274.49750	150.39282	292.48483	277.09589	147.32565	157.20709	
487	4.860	274.49744	150.39284	292.48486	277.09692	147.32541	157.20676	
488	4.870	274.49756	150.39279	292.48480	277.10080	147.32565	157.20598	
489	4.880	274.49805	150.39275	292.48483	277.10797	147.32672	157.20474	
490	4.890	274.49902	150.39275	292.48499	277.11777	147.32858	157.20322	
491	4.900	274.50043	150.39272	292.48523	277.12854	147.33096	157.20161	
492	4.910	274.50214	150.39261	292.48535	277.13846	147.33347	157.20023	
493	4.920	274.50394	150.39238	292.48535	277.14575	147.33560	157.19930	
494	4.930	274.50549	150.39203	292.48511	277.14880	147.33696	157.19904	
495	4.940	274.50650	150.39163	292.48471	277.14655	147.33737	157.19958	
496	4.950	274.50668	150.39130	292.48422	277.13870	147.33696	157.20103	
497	4.960	274.50607	150.39107	292.48376	277.12598	147.33609	157.20331	
498	4.970	274.50473	150.39104	292.48352	277.10983	147.33514	157.20625	
499	4.980	274.50302	150.39124	292.48349	277.09238	147.33432	157.20949	
500	4.990	274.50131	150.39159	292.48370	277.07608	147.33337	157.21251	
